<mxfile host="app.diagrams.net" modified="2024-05-02T15:56:33.036Z" agent="Mozilla/5.0 (Windows NT 10.0; Win64; x64) AppleWebKit/537.36 (KHTML, like Gecko) Chrome/124.0.0.0 Safari/537.36" etag="roo70uNxLYxmgWlZFJG1" version="24.3.1" type="github">
  <diagram id="C5RBs43oDa-KdzZeNtuy" name="Page-1">
    <mxGraphModel dx="1434" dy="784" grid="1" gridSize="10" guides="1" tooltips="1" connect="1" arrows="1" fold="1" page="1" pageScale="1" pageWidth="827" pageHeight="1169" math="0" shadow="0">
      <root>
        <mxCell id="WIyWlLk6GJQsqaUBKTNV-0" />
        <mxCell id="WIyWlLk6GJQsqaUBKTNV-1" parent="WIyWlLk6GJQsqaUBKTNV-0" />
        <mxCell id="CF8aHtqbppnlaMb5g4K6-6" style="edgeStyle=orthogonalEdgeStyle;rounded=0;orthogonalLoop=1;jettySize=auto;html=1;exitX=0.5;exitY=0;exitDx=0;exitDy=0;entryX=0.5;entryY=1;entryDx=0;entryDy=0;" edge="1" parent="WIyWlLk6GJQsqaUBKTNV-1" source="CF8aHtqbppnlaMb5g4K6-1" target="CF8aHtqbppnlaMb5g4K6-2">
          <mxGeometry relative="1" as="geometry" />
        </mxCell>
        <mxCell id="CF8aHtqbppnlaMb5g4K6-10" style="edgeStyle=orthogonalEdgeStyle;rounded=0;orthogonalLoop=1;jettySize=auto;html=1;exitX=0;exitY=1;exitDx=0;exitDy=0;" edge="1" parent="WIyWlLk6GJQsqaUBKTNV-1" source="CF8aHtqbppnlaMb5g4K6-1">
          <mxGeometry relative="1" as="geometry">
            <mxPoint x="200" y="690" as="targetPoint" />
          </mxGeometry>
        </mxCell>
        <mxCell id="CF8aHtqbppnlaMb5g4K6-11" style="edgeStyle=orthogonalEdgeStyle;rounded=0;orthogonalLoop=1;jettySize=auto;html=1;exitX=1;exitY=1;exitDx=0;exitDy=0;" edge="1" parent="WIyWlLk6GJQsqaUBKTNV-1" source="CF8aHtqbppnlaMb5g4K6-1">
          <mxGeometry relative="1" as="geometry">
            <mxPoint x="640" y="540" as="targetPoint" />
          </mxGeometry>
        </mxCell>
        <mxCell id="CF8aHtqbppnlaMb5g4K6-1" value="&lt;span style=&quot;font-size: 25px;&quot;&gt;GameRecorder&lt;/span&gt;&lt;br&gt;&lt;div&gt;기록 관련&lt;/div&gt;" style="ellipse;whiteSpace=wrap;html=1;fillColor=#333333;strokeColor=#2D7600;fontColor=#ffffff;" vertex="1" parent="WIyWlLk6GJQsqaUBKTNV-1">
          <mxGeometry x="293" y="480" width="241" height="180" as="geometry" />
        </mxCell>
        <mxCell id="CF8aHtqbppnlaMb5g4K6-8" style="edgeStyle=orthogonalEdgeStyle;rounded=0;orthogonalLoop=1;jettySize=auto;html=1;exitX=0;exitY=0.5;exitDx=0;exitDy=0;" edge="1" parent="WIyWlLk6GJQsqaUBKTNV-1" source="CF8aHtqbppnlaMb5g4K6-2">
          <mxGeometry relative="1" as="geometry">
            <mxPoint x="180" y="300" as="targetPoint" />
          </mxGeometry>
        </mxCell>
        <mxCell id="CF8aHtqbppnlaMb5g4K6-9" style="edgeStyle=orthogonalEdgeStyle;rounded=0;orthogonalLoop=1;jettySize=auto;html=1;exitX=1;exitY=0.5;exitDx=0;exitDy=0;" edge="1" parent="WIyWlLk6GJQsqaUBKTNV-1" source="CF8aHtqbppnlaMb5g4K6-2">
          <mxGeometry relative="1" as="geometry">
            <mxPoint x="610" y="140" as="targetPoint" />
          </mxGeometry>
        </mxCell>
        <mxCell id="CF8aHtqbppnlaMb5g4K6-2" value="&lt;font style=&quot;font-size: 25px;&quot;&gt;Main&lt;/font&gt;&lt;div&gt;게임 실행 및 출력&lt;/div&gt;" style="ellipse;whiteSpace=wrap;html=1;fillColor=#333333;strokeColor=#2D7600;fontColor=#ffffff;" vertex="1" parent="WIyWlLk6GJQsqaUBKTNV-1">
          <mxGeometry x="293" y="140" width="241" height="180" as="geometry" />
        </mxCell>
        <mxCell id="CF8aHtqbppnlaMb5g4K6-13" value="&lt;div&gt;&lt;span style=&quot;font-size: 25px;&quot;&gt;실행?&lt;/span&gt;&lt;/div&gt;&lt;div&gt;무작위 세 자리수 생성&lt;/div&gt;&lt;div&gt;리스트로 ~&lt;/div&gt;&lt;div&gt;입력 값, 무작위 값 비교&lt;/div&gt;&lt;div&gt;&lt;span style=&quot;background-color: initial; font-size: 25px;&quot;&gt;&amp;nbsp;&lt;/span&gt;&lt;br&gt;&lt;/div&gt;" style="ellipse;whiteSpace=wrap;html=1;fillColor=#333333;strokeColor=#2D7600;fontColor=#ffffff;" vertex="1" parent="WIyWlLk6GJQsqaUBKTNV-1">
          <mxGeometry x="20" y="220" width="165" height="150" as="geometry" />
        </mxCell>
        <mxCell id="CF8aHtqbppnlaMb5g4K6-17" value="&lt;div&gt;&lt;span style=&quot;font-size: 25px;&quot;&gt;출력?&lt;/span&gt;&lt;/div&gt;&lt;font style=&quot;font-size: 15px;&quot;&gt;when, while&lt;/font&gt;" style="ellipse;whiteSpace=wrap;html=1;fillColor=#333333;strokeColor=#2D7600;fontColor=#ffffff;" vertex="1" parent="WIyWlLk6GJQsqaUBKTNV-1">
          <mxGeometry x="610" y="70" width="165" height="150" as="geometry" />
        </mxCell>
        <mxCell id="CF8aHtqbppnlaMb5g4K6-18" value="&lt;font style=&quot;font-size: 15px;&quot;&gt;기록없을때?&lt;/font&gt;&lt;div&gt;&lt;span style=&quot;font-size: 15px;&quot;&gt;기록 저장? index 추가&lt;br&gt;&lt;/span&gt;&lt;div style=&quot;font-size: 15px;&quot;&gt;&lt;br&gt;&lt;/div&gt;&lt;/div&gt;" style="ellipse;whiteSpace=wrap;html=1;fillColor=#333333;strokeColor=#2D7600;fontColor=#ffffff;" vertex="1" parent="WIyWlLk6GJQsqaUBKTNV-1">
          <mxGeometry x="640" y="470" width="165" height="150" as="geometry" />
        </mxCell>
        <mxCell id="CF8aHtqbppnlaMb5g4K6-19" value="&lt;font style=&quot;font-size: 15px;&quot;&gt;맞춘 횟수?&lt;/font&gt;" style="ellipse;whiteSpace=wrap;html=1;fillColor=#333333;strokeColor=#2D7600;fontColor=#ffffff;" vertex="1" parent="WIyWlLk6GJQsqaUBKTNV-1">
          <mxGeometry x="120" y="690" width="165" height="150" as="geometry" />
        </mxCell>
      </root>
    </mxGraphModel>
  </diagram>
</mxfile>
